<svg xmlns="http://www.w3.org/2000/svg" viewBox="0 0 24 24">
  <defs>
    <style>
      .v11-icon-stroke { fill: none; stroke: currentColor; stroke-linecap: round; stroke-linejoin: round; stroke-width: 1.8; }
    </style>
  </defs>
  <symbol id="research" viewBox="0 0 24 24">
    <path class="v11-icon-stroke" d="M4 5.5h16M6 5.5v13m12-13v13M6 18.5h12M9 9h6M9 12.5h6M9 16h3"/>
  </symbol>
  <symbol id="test" viewBox="0 0 24 24">
    <path class="v11-icon-stroke" d="m7 3 14 14M5 7l4-4M3 21l5-5M13 9l-4 4M15 7l2-2M17 5l2 2M15 15l4-4"/>
  </symbol>
  <symbol id="budget" viewBox="0 0 24 24">
    <path class="v11-icon-stroke" d="M3 8.5h18v11H3zM5 8.5V5h14v3.5M3 12h18M7 15.5h4"/>
  </symbol>
  <symbol id="warning" viewBox="0 0 24 24">
    <path class="v11-icon-stroke" d="m12 3 9 17H3L12 3ZM12 9v5M12 17.5h.01"/>
  </symbol>
  <symbol id="strategy" viewBox="0 0 24 24">
    <path class="v11-icon-stroke" d="M4 19V9m6 10V5m6 14v-7m4 7V3M2 19h20"/>
  </symbol>
  <symbol id="visual" viewBox="0 0 24 24">
    <path class="v11-icon-stroke" d="M4 5h16v14H4zM8 15l2.7-3 2.1 2 2.5-3 3.7 4M8 9h.01"/>
  </symbol>
  <symbol id="result" viewBox="0 0 24 24">
    <path class="v11-icon-stroke" d="M4 12.5 9 17l11-11M4 5h4M4 19h4"/>
  </symbol>
</svg>
